
<svg width="18" height="21" viewBox="0 0 18 21" fill="none" xmlns="http://www.w3.org/2000/svg">
<path d="M10.7111 17.0953H7.20557V20.5894H10.7111V17.0953Z" fill="#44FFC8"/>
<path d="M16.7097 4.33529C15.9047 3.02823 14.8141 1.97999 13.4378 1.21646C12.0746 0.452932 10.5815 0.0646973 8.95856 0.0646973C7.34862 0.0646973 5.82956 0.452932 4.4663 1.21646C3.09005 1.97999 2.01243 3.02823 1.20746 4.33529C0.402487 5.64234 0 7.09176 0 8.6447C0 10.2106 0.402487 11.647 1.20746 12.9541C2.01243 14.2741 3.09005 15.3094 4.4663 16.0859C5.3232 16.5647 6.24503 16.9012 7.2058 17.0823V13.4588C6.93315 13.3553 6.6605 13.2388 6.38785 13.0965C5.60884 12.6694 4.97265 12.0612 4.51823 11.2847C4.06381 10.5082 3.83011 9.64117 3.83011 8.67058C3.83011 7.69999 4.05083 6.81999 4.50525 6.04352C4.95967 5.26705 5.58287 4.65882 6.36188 4.21882C7.14088 3.77882 8.01077 3.55881 8.95856 3.55881C9.90635 3.55881 10.7503 3.77882 11.5423 4.21882C12.3213 4.65882 12.9445 5.26705 13.4119 6.04352C13.8663 6.81999 14.1 7.69999 14.1 8.67058C14.1 9.64117 13.8793 10.5082 13.4119 11.2847C12.9575 12.0612 12.3343 12.6694 11.5423 13.1094C11.2826 13.2647 10.997 13.3812 10.7113 13.4718V17.0953C11.6721 16.9141 12.5809 16.5776 13.4378 16.0988C14.8141 15.3353 15.8917 14.2871 16.7097 12.9671C17.5146 11.6471 17.9171 10.2106 17.9171 8.65764C17.9171 7.1047 17.5146 5.64234 16.7097 4.33529Z" fill="#1E4AC4"/>
</svg>
