<!-- <svg
    width="96"
    height="32"
    viewBox="0 0 96 32"
    fill="none"
    xmlns="http://www.w3.org/2000/svg">
    <g clip-path="url(#clip0)">
        <path
            d="M51.592 10.368H44.872V14.352H51.4V17.52H44.872V24H41.56V7.2H51.592V10.368ZM60.9693 24.336C60.0733 24.336 59.2253 24.2 58.4253 23.928C57.6413 23.656 56.9613 23.272 56.3853 22.776C55.8093 22.264 55.3613 21.648 55.0413 20.928C54.7213 20.192 54.5613 19.384 54.5613 18.504V7.2H57.8493V18.24C57.8493 19.104 58.0973 19.8 58.5933 20.328C59.1053 20.84 59.8973 21.096 60.9693 21.096C62.0413 21.096 62.8253 20.84 63.3213 20.328C63.8333 19.8 64.0893 19.104 64.0893 18.24V7.2H67.4013V18.504C67.4013 19.384 67.2413 20.192 66.9213 20.928C66.6013 21.648 66.1533 22.264 65.5773 22.776C65.0013 23.272 64.3133 23.656 63.5133 23.928C62.7293 24.2 61.8813 24.336 60.9693 24.336ZM76.821 24.336C75.157 24.336 73.757 23.968 72.621 23.232C71.485 22.48 70.685 21.464 70.221 20.184L73.053 18.528C73.357 19.328 73.829 19.96 74.469 20.424C75.109 20.872 75.925 21.096 76.917 21.096C77.829 21.096 78.501 20.928 78.933 20.592C79.381 20.256 79.605 19.832 79.605 19.32C79.605 18.872 79.413 18.472 79.029 18.12C78.645 17.768 77.629 17.352 75.981 16.872C74.829 16.536 73.901 16.168 73.197 15.768C72.493 15.368 71.933 14.848 71.517 14.208C71.117 13.568 70.917 12.784 70.917 11.856C70.917 11.296 71.013 10.728 71.205 10.152C71.413 9.56 71.781 8.992 72.309 8.448C72.837 7.904 73.477 7.504 74.229 7.248C74.981 6.992 75.717 6.864 76.437 6.864C77.797 6.864 78.989 7.2 80.013 7.872C81.053 8.528 81.861 9.448 82.437 10.632L79.653 12.24C78.981 10.8 77.909 10.08 76.437 10.08C75.765 10.08 75.229 10.24 74.829 10.56C74.429 10.88 74.229 11.28 74.229 11.76C74.229 12.272 74.437 12.696 74.853 13.032C75.285 13.368 76.141 13.728 77.421 14.112C78.989 14.608 80.125 15.072 80.829 15.504C81.549 15.936 82.077 16.472 82.413 17.112C82.749 17.752 82.917 18.472 82.917 19.272C82.917 20.04 82.765 20.744 82.461 21.384C82.173 22.008 81.757 22.544 81.213 22.992C80.669 23.424 80.021 23.76 79.269 24C78.517 24.224 77.701 24.336 76.821 24.336ZM88.972 20.832H96.052V24H85.66V7.2H95.932V10.368H88.972V13.944H95.332V17.064H88.972V20.832Z"
            fill="#3F414B"/>
        <path
            d="M16 6.75556V0L1.02839 14.6389C0.462304 15.1924 0.457197 16.1016 1.01703 16.6615L3.55556 19.2"
            fill="#2196F3"/>
        <path
            d="M16 6.75556V0L30.9716 14.6389C31.5377 15.1924 31.5428 16.1016 30.983 16.6615L28.4444 19.2"
            fill="#1878C6"/>
        <path
            d="M3.55556 19.2L9.6 13.1556H16V19.2"
            fill="#1565C0"/>
        <path
            d="M28.4444 19.2L22.4 13.1556H16V19.2"
            fill="#10519D"/>
        <path
            d="M16 25.9556H9.95555L12.9778 22.7556L16 25.9556Z"
            fill="#1565C0"/>
        <path
            d="M16 32L22.0444 25.9556L16 25.9556V32Z"
            fill="#1878C6"/>
        <path
            d="M16 32L9.95555 25.9556H16V32Z"
            fill="#2196F3"/>
        <path
            d="M16 25.9556H22.0444L19.0222 22.7556L16 25.9556Z"
            fill="#10519D"/>
        <path
            d="M7.72363 21.7502C7.18605 22.3085 7.19441 23.1944 7.74243 23.7424L9.95556 25.9556L16 19.5556V13.1556"
            fill="#2196F3"/>
        <path
            d="M24.2764 21.7502C24.814 22.3085 24.8056 23.1944 24.2576 23.7424L22.0444 25.9556L16 19.5556V13.1556"
            fill="#1878C6"/>
    </g>
    <defs>
        <clipPath id="clip0">
            <rect
                width="96"
                height="32"
                fill="white"/>
        </clipPath>
    </defs>
</svg> -->

<svg width="94" height="21" viewBox="0 0 94 21" fill="none" xmlns="http://www.w3.org/2000/svg">
<path d="M24.6814 17.2894C23.5778 17.2894 22.5911 16.9918 21.7212 16.3965C20.8383 15.8012 20.1502 14.9988 19.6568 13.9765C19.1635 12.9671 18.9038 11.8412 18.9038 10.6247C18.9038 9.40826 19.1505 8.30826 19.6568 7.2859C20.1502 6.27649 20.8513 5.4612 21.7212 4.8659C22.5911 4.27061 23.5778 3.97296 24.6555 3.97296C25.2657 3.97296 25.837 4.05061 26.3693 4.2059C26.9016 4.3612 27.369 4.59414 27.7715 4.89179C28.174 5.18943 28.5115 5.55178 28.7582 5.97884V4.38708H32.2897V16.8883H28.7323V15.3094C28.4856 15.7365 28.148 16.0859 27.7455 16.3836C27.343 16.6812 26.8756 16.9141 26.3563 17.0694C25.8499 17.2247 25.2787 17.2894 24.6814 17.2894ZM25.5903 13.873C26.1615 13.873 26.6679 13.7306 27.1353 13.4459C27.5897 13.1741 27.9533 12.773 28.2259 12.2683C28.4856 11.7765 28.6154 11.22 28.6154 10.6247C28.6154 10.0294 28.4856 9.4859 28.2129 8.99414C27.9533 8.50237 27.5897 8.11414 27.1223 7.81649C26.6679 7.53178 26.1615 7.37649 25.6033 7.37649C25.045 7.37649 24.5516 7.5059 24.0842 7.76473C23.6168 8.02355 23.2662 8.39884 22.9936 8.89061C22.7339 9.38237 22.5911 9.95179 22.5911 10.6118C22.5911 11.2718 22.7209 11.8671 22.9936 12.3588C23.2662 12.8506 23.6298 13.213 24.0842 13.4718C24.5386 13.7436 25.045 13.873 25.5903 13.873Z" fill="#1E4AC4"/>
<path d="M33.3152 14.6364L39.0929 7.49291H33.6138V4.37408H44.1694V6.65173L38.4567 13.7564H44.455V16.8753H33.3022V14.6364H33.3152Z" fill="#1E4AC4"/>
<path d="M45.7275 0.478821H52.8684C54.011 0.478821 55.0237 0.724704 55.9325 1.20353C56.8284 1.69529 57.5425 2.36823 58.0488 3.23529C58.5552 4.10235 58.8148 5.07294 58.8148 6.14706C58.8148 7.29882 58.5681 8.32117 58.0618 9.21412C57.5684 10.1071 56.8673 10.78 55.9585 11.2718C55.0626 11.7635 54.0499 11.9965 52.9204 11.9965H49.5836V16.8624H45.7405L45.7275 0.478821ZM52.7126 8.63176C53.1281 8.63176 53.5046 8.52823 53.8422 8.30823C54.1797 8.08823 54.4654 7.79059 54.6601 7.41529C54.8679 7.04 54.9588 6.62588 54.9588 6.17294C54.9588 5.79764 54.8549 5.42235 54.6601 5.07294C54.4524 4.72353 54.1797 4.43882 53.8422 4.21882C53.5046 3.99882 53.1151 3.89529 52.7126 3.89529H49.5706V8.6447L52.7126 8.63176Z" fill="#1E4AC4"/>
<path d="M65.7743 17.2894C64.5019 17.2894 63.3594 16.9918 62.3466 16.3965C61.3339 15.8012 60.542 14.9988 59.9707 13.9894C59.3994 12.98 59.1138 11.8541 59.1138 10.6377C59.1138 9.42119 59.3864 8.32119 59.9577 7.29884C60.529 6.28943 61.321 5.47414 62.3337 4.87884C63.3464 4.28355 64.5019 3.9859 65.7873 3.9859C67.0726 3.9859 68.2411 4.28355 69.2538 4.87884C70.2665 5.47414 71.0715 6.27649 71.6428 7.29884C72.214 8.30825 72.4997 9.42119 72.4997 10.6377C72.4997 11.8412 72.214 12.98 71.6428 13.9894C71.0715 14.9988 70.2795 15.8012 69.2538 16.3965C68.2281 16.9918 67.0726 17.2894 65.7743 17.2894ZM65.8002 13.86C66.3845 13.86 66.9038 13.7306 67.3453 13.4459C67.7867 13.1612 68.1502 12.7859 68.4099 12.3071C68.6696 11.8153 68.7994 11.2588 68.7994 10.6377C68.7994 10.0165 68.6696 9.44708 68.4099 8.96825C68.1502 8.47649 67.7997 8.10119 67.3453 7.82943C66.8908 7.55767 66.3845 7.41531 65.8002 7.41531C65.216 7.41531 64.6966 7.54472 64.2422 7.82943C63.7878 8.10119 63.4243 8.48943 63.1776 8.96825C62.9179 9.46002 62.7881 10.0165 62.7881 10.6377C62.7881 11.2588 62.9179 11.8283 63.1776 12.32C63.4372 12.8118 63.7878 13.1871 64.2422 13.4588C64.7096 13.7177 65.229 13.86 65.8002 13.86Z" fill="#1E4AC4"/>
<path d="M78.8483 17.2894C77.6279 17.2894 76.6022 17.0824 75.7712 16.6553C74.9403 16.2283 74.3171 15.6718 73.9146 14.9988C73.5121 14.313 73.3174 13.5753 73.3174 12.7859L76.8878 12.8118C76.9138 13.1224 76.9917 13.3941 77.1475 13.6271C77.2903 13.86 77.511 14.0412 77.8096 14.1706C78.1083 14.3 78.4588 14.3647 78.8873 14.3647C79.2768 14.3647 79.5884 14.3259 79.8351 14.2224C80.0817 14.1188 80.2635 14.0024 80.3674 13.8341C80.4712 13.6659 80.5362 13.4718 80.5362 13.2388C80.5362 13.0059 80.4583 12.7988 80.3025 12.6565C80.1467 12.5012 79.913 12.3847 79.6143 12.3071C79.3027 12.2165 78.8873 12.1388 78.3679 12.0612C77.4721 11.9447 76.6801 11.7377 76.005 11.44C75.3298 11.1424 74.7845 10.7024 74.395 10.1459C73.9925 9.57649 73.7978 8.87767 73.7978 8.03649C73.7978 7.19531 73.9925 6.47061 74.382 5.86237C74.7715 5.25414 75.3298 4.78825 76.0828 4.47767C76.8229 4.15414 77.7188 3.99884 78.7574 3.99884C79.7961 3.99884 80.7049 4.18002 81.4969 4.52943C82.3019 4.87884 82.9121 5.38355 83.3665 6.03061C83.808 6.67767 84.0287 7.41531 84.0287 8.24355L80.3804 8.21766C80.3544 7.98472 80.2765 7.77766 80.1726 7.59649C80.0558 7.40237 79.874 7.26002 79.6403 7.15649C79.4066 7.05296 79.108 7.00119 78.7704 7.00119C78.4718 7.00119 78.2251 7.04002 78.0304 7.13061C77.8356 7.20825 77.6928 7.32472 77.6019 7.46708C77.511 7.60943 77.4721 7.76472 77.4721 7.95884C77.4721 8.20472 77.524 8.3859 77.6279 8.51531C77.7317 8.64472 77.9395 8.76119 78.2381 8.83884C78.5367 8.92943 79.0431 9.03296 79.7312 9.12355C79.8091 9.13649 79.9 9.14943 79.9909 9.16237C80.0817 9.17531 80.1596 9.18825 80.2505 9.20119C81.1723 9.35649 81.9384 9.58943 82.5226 9.87414C83.1199 10.1718 83.5743 10.56 83.8989 11.0647C84.2105 11.5694 84.3793 12.2165 84.3793 13.0188C84.3793 13.9635 84.1326 14.753 83.6652 15.3871C83.1978 16.0212 82.5356 16.5 81.7177 16.8106C80.8997 17.1212 79.9649 17.2894 78.9003 17.2894H78.8483Z" fill="#1E4AC4"/>
<path d="M91.2217 16.8883C90.4557 16.8883 89.7546 16.7718 89.1184 16.5388C88.4822 16.3059 87.9628 15.8271 87.5214 15.1153C87.08 14.3906 86.8592 13.3683 86.8592 12.0224V7.55767H84.4443V4.40002H86.8592V0.789434L90.5985 0.76355V4.40002H94.0001V7.55767H90.6115V12.1906C90.6115 12.5788 90.6764 12.8894 90.8062 13.1353C90.936 13.3812 91.0918 13.5624 91.2996 13.6659C91.5073 13.7694 91.754 13.8341 92.0266 13.8341H94.0001V16.9012L91.2217 16.8883Z" fill="#1E4AC4"/>
<path d="M10.7111 17.0953H7.20557V20.5894H10.7111V17.0953Z" fill="#44FFC8"/>
<path d="M16.7097 4.33529C15.9047 3.02823 14.8141 1.97999 13.4378 1.21646C12.0746 0.452932 10.5815 0.0646973 8.95856 0.0646973C7.34862 0.0646973 5.82956 0.452932 4.4663 1.21646C3.09005 1.97999 2.01243 3.02823 1.20746 4.33529C0.402487 5.64234 0 7.09176 0 8.6447C0 10.2106 0.402487 11.647 1.20746 12.9541C2.01243 14.2741 3.09005 15.3094 4.4663 16.0859C5.3232 16.5647 6.24503 16.9012 7.2058 17.0823V13.4588C6.93315 13.3553 6.6605 13.2388 6.38785 13.0965C5.60884 12.6694 4.97265 12.0612 4.51823 11.2847C4.06381 10.5082 3.83011 9.64117 3.83011 8.67058C3.83011 7.69999 4.05083 6.81999 4.50525 6.04352C4.95967 5.26705 5.58287 4.65882 6.36188 4.21882C7.14088 3.77882 8.01077 3.55881 8.95856 3.55881C9.90635 3.55881 10.7503 3.77882 11.5423 4.21882C12.3213 4.65882 12.9445 5.26705 13.4119 6.04352C13.8663 6.81999 14.1 7.69999 14.1 8.67058C14.1 9.64117 13.8793 10.5082 13.4119 11.2847C12.9575 12.0612 12.3343 12.6694 11.5423 13.1094C11.2826 13.2647 10.997 13.3812 10.7113 13.4718V17.0953C11.6721 16.9141 12.5809 16.5776 13.4378 16.0988C14.8141 15.3353 15.8917 14.2871 16.7097 12.9671C17.5146 11.6471 17.9171 10.2106 17.9171 8.65764C17.9171 7.1047 17.5146 5.64234 16.7097 4.33529Z" fill="#1E4AC4"/>
</svg>
